<svg width="200" height="200" viewBox="0 0 200 200" xmlns="http://www.w3.org/2000/svg">
  <!-- PLATSHÅLLARE: QR-kod till bokadirekt. Ersätts av Håkans skarpa QR-PNG. -->
  <rect width="200" height="200" fill="#FFFFFF"/>
  <g fill="#151515">
    <!-- finder top-left -->
    <path d="M16 16h56v56H16Zm12 12v32h32V28Z" fill-rule="evenodd"/>
    <rect x="34" y="34" width="20" height="20"/>
    <!-- finder top-right -->
    <path d="M128 16h56v56h-56Zm12 12v32h32V28Z" fill-rule="evenodd"/>
    <rect x="146" y="34" width="20" height="20"/>
    <!-- finder bottom-left -->
    <path d="M16 128h56v56H16Zm12 12v32h32v-32Z" fill-rule="evenodd"/>
    <rect x="34" y="146" width="20" height="20"/>
    <!-- scattered modules (placeholder pattern) -->
    <rect x="88" y="16" width="12" height="12"/><rect x="112" y="16" width="12" height="12"/>
    <rect x="88" y="40" width="12" height="12"/><rect x="100" y="52" width="12" height="12"/>
    <rect x="88" y="88" width="12" height="12"/><rect x="112" y="88" width="12" height="12"/>
    <rect x="136" y="88" width="12" height="12"/><rect x="160" y="100" width="12" height="12"/>
    <rect x="16" y="100" width="12" height="12"/><rect x="40" y="100" width="12" height="12"/>
    <rect x="100" y="112" width="12" height="12"/><rect x="124" y="124" width="12" height="12"/>
    <rect x="148" y="136" width="12" height="12"/><rect x="172" y="148" width="12" height="12"/>
    <rect x="88" y="136" width="12" height="12"/><rect x="100" y="160" width="12" height="12"/>
    <rect x="124" y="160" width="12" height="12"/><rect x="148" y="172" width="12" height="12"/>
    <rect x="172" y="172" width="12" height="12"/><rect x="88" y="172" width="12" height="12"/>
  </g>
</svg>
